<?xml version="1.0" encoding="utf-8"?>
<!-- Generator: Adobe Illustrator 23.0.5, SVG Export Plug-In . SVG Version: 6.00 Build 0)  -->
<svg version="1.1" id="Layer_1" xmlns="http://www.w3.org/2000/svg" xmlns:xlink="http://www.w3.org/1999/xlink" x="0px" y="0px"
	 viewBox="0 0 560 288" style="enable-background:new 0 0 560 288;" xml:space="preserve">
<g>
	<g>
		<path d="M190.08,167.62c0.16-3.87,1.19-6.01,4.46-6.74c2.61-0.58,4.19-2.57,5.14-5c0.76-1.93,1.45-3.88,2.12-5.84
			c5.63-16.47,11.25-32.93,16.86-49.41c0.67-1.96,1.16-3.97,1.78-5.95c0.83-2.64-0.07-4.42-2.57-5.5c-0.36-0.15-0.63-0.5-1.29-1.04
			c0.48-1.56,1-3.28,1.51-4.95c0.81-0.21,1.4-0.49,2-0.49c14.93-0.01,29.86-0.03,44.78,0.03c4.18,0.02,8.26,0.82,12.1,2.5
			c5.14,2.26,7.17,5.64,6.98,11.28c-0.13,4.05-1.58,7.69-3.6,11.12c-3.13,5.33-7.69,9.17-13.02,12.17
			c-1.75,0.99-3.52,1.95-5.57,3.08c1.73,1.31,3.12,2.21,4.34,3.3c4.24,3.77,5.92,8.49,4.55,14.01c-2.46,9.93-7.84,17.73-17.13,22.51
			c-5.03,2.59-10.34,4.27-16,4.65c-4.13,0.28-8.28,0.53-12.42,0.56c-9.54,0.08-19.08,0.05-28.61,0.01
			C194.49,167.93,192.47,167.74,190.08,167.62z M230.72,128.73c-4.15,9.77-9.02,24.98-9.42,29.34c2.6,0.77,5.29,0.45,7.93,0.37
			c9.56-0.27,15.87-5.01,18.96-14.04c0.6-1.75,1.19-3.53,1.51-5.35c1.07-5.93-1.61-9.69-7.64-10.26
			C238.4,128.44,234.68,128.73,230.72,128.73z M242.79,92.57c-1.13,3.23-2.16,6.15-3.18,9.07c-0.95,2.73-2.03,5.43-2.82,8.21
			c-0.81,2.84-2.46,5.52-2.3,8.99c2.83,0,5.3,0.04,7.76-0.01c11.48-0.2,17.61-8.02,19.28-17.53c0.9-5.11-1.17-7.85-6.35-8.68
			C251.3,91.98,247.38,92.07,242.79,92.57z"/>
		<path d="M355.63,162.43c-0.71,1.89-1.28,3.4-1.79,4.78c-4.88,0.95-19.15,1.03-25.05,0.17c-1.9-2.53-2.06-5.72-2.64-8.72
			c-0.71-3.65-1-7.38-1.49-11.08c-0.35-2.67-0.73-5.34-1.11-8c-0.3-2.09-0.72-4.26-2.62-5.41c-2.01-1.22-4.28-1.33-6.98-0.16
			c-2.32,7.03-4.8,14.25-7.08,21.54c-1.06,3.39-0.86,3.49,2.63,5.86c0.33,0.22,0.54,0.6,0.96,1.08c-0.04,0.36-0.01,0.99-0.19,1.55
			c-0.39,1.15-0.89,2.26-1.29,3.25c-4.8,0.84-26.7,0.97-33.05,0.25c-0.33-3.99,0.08-5.37,3-6.22c3.89-1.13,5.73-3.82,6.92-7.3
			c1.94-5.68,3.88-11.36,5.82-17.05c4.21-12.35,8.41-24.69,12.61-37.04c0.33-0.98,0.62-1.97,0.92-2.97c1.55-5.16,1.55-5.16-3.14-9
			c0.51-1.57,1.06-3.28,1.63-5.01c1.54-0.12,2.76-0.29,3.99-0.29c11.6-0.01,23.21,0.02,34.81,0.01c4.38,0,8.7,0.49,12.86,1.86
			c8.65,2.86,12.12,8.87,10.1,17.86c-2.2,9.78-7.65,17.34-16.3,22.48c-2.48,1.47-5.08,2.74-7.99,4.31
			c4.44,4.24,5.84,9.48,6.34,15.14c0.25,2.88,0.82,5.74,1.39,8.58C349.96,158.28,350.43,158.9,355.63,162.43z M318.28,123.5
			c2.77,0,5.05,0.21,7.27-0.04c4.65-0.54,8.81-2.33,11.9-5.98c4-4.72,6.07-10.33,6.79-16.38c0.54-4.51-1.94-7.7-6.33-8.48
			c-3.22-0.57-6.5-0.83-9.49,0.1C325.14,100.2,319.11,118.4,318.28,123.5z"/>
		<path d="M174.71,167.86c-19.77,0-39.45,0.01-59.13-0.03c-0.55,0-1.1-0.42-1.73-0.67c0.11-3.25,1.03-5.57,4.61-6.33
			c2.59-0.55,4.13-2.63,5.05-5.09c0.51-1.36,1.09-2.69,1.56-4.06c6-17.66,11.99-35.31,17.98-52.98c0.46-1.37,0.91-2.76,1.22-4.17
			c0.49-2.21,0.18-4.12-2.23-5.14c-0.53-0.23-0.95-0.74-1.67-1.34c0.57-1.68,1.16-3.38,1.69-4.94c6.84-0.79,57.16-0.64,61.68,0.14
			c-0.38,4.24-3.78,14.7-6.64,20.39c-5.25,0.85-5.25,0.85-9.94-0.34c-0.2-1.9-0.3-3.95-0.65-5.95c-0.56-3.23-2.09-4.73-5.4-4.95
			c-4.73-0.31-9.48-0.57-14.64,0.31c-2.84,8.34-5.69,16.72-8.55,25.13c8.61,2.44,10.91,1.43,17.12-7.4c1.21-0.1,2.63-0.3,4.05-0.31
			c1.4-0.01,2.81,0.18,4.6,0.31c-2.6,9.07-5.75,17.59-8.72,26.16c-2.78,1.1-5.44,0.66-8.55,0.43c-0.23-1.81-0.4-3.59-0.71-5.35
			c-0.35-2.01-1.27-2.94-3.32-3.06c-2.46-0.14-4.94-0.03-7.73-0.03c-2.4,4.66-3.7,9.67-5.32,14.52c-1.63,4.87-3.75,9.61-4.72,15.02
			c5,0.66,9.71,0.56,14.41,0.13c2.31-0.22,4.39-1.38,6.01-3.03c2.02-2.06,3.89-4.28,5.72-6.53c1.3-1.6,2.4-3.34,3.56-4.97
			c3.3-0.31,6.37-0.55,9.43,0.18C183.01,148.38,178.64,160.08,174.71,167.86z"/>
		<path d="M421.34,82.49c5.85-0.24,11.58-0.63,17.65,0.27c0.06,1.72,0.2,3.13,0.14,4.53c-0.57,12.85-1.19,25.69-1.76,38.54
			c-0.41,9.12-0.78,18.24-1.17,27.36c-0.02,0.41-0.01,0.83-0.02,1.24c-0.13,3.36,0.62,6.23,4.17,7.3c0.56,2.48-0.19,4.29-1.7,5.84
			c-6.51,0.61-29.52,0.5-34.16-0.16c0-4.85-0.05-5.02,3.82-6.24c2.92-0.92,4.55-2.69,5.17-5.58c0.26-1.21,0.64-2.42,0.75-3.65
			c0.25-2.88,0.37-5.77,0.54-8.56c-4.16-1.33-13.27-1.59-23.84-0.76c-3.16,3.68-5.95,7.77-7.88,12.4c-1.53,3.66-1.31,4.14,2.24,6.38
			c0.34,0.21,0.62,0.52,1.2,1.03c-0.51,1.57-1.06,3.27-1.62,4.99c-1.09,0.2-1.89,0.47-2.69,0.47c-7.68,0.02-15.35,0-23.03-0.05
			c-0.56,0-1.11-0.34-1.82-0.57c-0.38-2.06,0.57-3.63,1.61-5.31c6.89-1.74,10.87-7.18,14.74-12.54
			c10.31-14.3,20.41-28.75,30.59-43.14c4.55-6.43,9.1-12.87,13.67-19.3C419.02,85.48,420.17,84.03,421.34,82.49z M397.57,132.63
			c5.03,0,9.36,0.03,13.69-0.01c1.43-0.01,2.86-0.2,4.21-0.3c1.11-3.76,2.54-19.08,2.55-27.3c0-0.48-0.38-0.97-0.63-1.57
			C413.91,107.12,400.74,126.41,397.57,132.63z"/>
		<path d="M48.89,161.75c1.15-0.27,2.14-0.49,3.14-0.74c2.6-0.65,4.39-2.25,5.4-4.71c0.71-1.72,1.44-3.44,2.04-5.21
			c6-17.65,11.98-35.31,17.97-52.97c0.58-1.71,1.53-3.36,0.99-5.47c-5.59-1.32-10.21,0.14-13.68,4.75c-1.99,2.65-3.8,5.43-5.87,8.42
			c-3.01,0.87-6.27,0.41-10.01,0.29c0.54-4.33,2.34-8.02,3.53-11.85c1.17-3.75,2.57-7.42,3.83-11.02c4.84-0.8,64.16-1.01,73.17-0.27
			c0.56,2.73-1.08,5.05-1.73,7.51c-0.69,2.6-1.69,5.11-2.58,7.65c-0.89,2.52-1.81,5.03-2.77,7.7c-3.37,0.68-6.57,0.56-10.19,0.09
			c-0.05-1.88-0.09-3.48-0.15-5.09c-0.06-1.45,0.02-2.93-0.28-4.33c-0.46-2.19-1.78-3.82-4.14-4.02c-2.03-0.17-4.09-0.04-6.44-0.04
			c-0.58,1.29-1.26,2.54-1.71,3.87c-6.23,18.23-12.43,36.47-18.61,54.72c-0.6,1.76-1.15,3.56-1.5,5.38
			c-0.53,2.71-0.13,3.28,2.71,4.72c0.54,0.28,1.1,0.53,2.01,0.98c-0.48,1.71-0.96,3.41-1.39,4.94c-4.66,1.07-28.22,1.26-35.01,0.35
			C46.54,165.47,47.81,163.94,48.89,161.75z"/>
		<path d="M465.29,159.46c0.03,2.32-1,4.73-2.97,6.71c-3.99,4.03-11.46,4.43-15.9,0.9c-4.41-3.51-4.65-10.06-0.51-14.17
			c3.77-3.74,11.13-4.36,15.44-1.3C463.69,153.27,465.2,156.09,465.29,159.46z"/>
		<path d="M489.53,149.76c-0.2-0.02,0.64-0.02,1.44,0.16c3.95,0.85,6.69,3.11,7.75,7.07c1.01,3.79-0.59,8-4.01,10.26
			c-4.31,2.85-8.91,3.1-13.42,0.55c-5.85-3.31-6.23-11.34-0.84-15.62C482.8,150.32,485.53,149.58,489.53,149.76z"/>
		<path d="M521.37,149.69c7.4,0,11.88,4.52,11.21,10.71c-0.31,2.83-1.73,5.02-3.94,6.72c-3.87,2.96-9.85,3.16-13.96,0.52
			c-5.47-3.52-5.83-11-0.73-15.27C516.26,150.43,518.96,149.61,521.37,149.69z"/>
	</g>
</g>
</svg>
